<svg width="48.000000" height="42.666016" viewBox="0 0 48 42.666" fill="none" xmlns="http://www.w3.org/2000/svg" xmlns:xlink="http://www.w3.org/1999/xlink">
	<desc>
			Created with Pixso.
	</desc>
	<defs/>
	<path id="Vector" d="M24 0C26.96 0 29.33 2.37 29.33 5.33C29.33 8.29 26.96 10.66 24 10.66C21.04 10.66 18.66 8.29 18.66 5.33C18.66 2.37 21.06 0 24 0ZM48 32L48 26.66C42.02 26.66 36.9 24.1 33.06 19.51L29.49 15.25C28.99 14.65 28.37 14.16 27.66 13.83C26.96 13.5 26.19 13.33 25.41 13.33L22.66 13.33C21.04 13.33 19.54 14.02 18.53 15.25L14.96 19.51C11.09 24.1 5.97 26.66 0 26.66L0 32C7.38 32 13.83 28.88 18.66 23.33L18.66 29.33L8.31 33.46C6.53 34.18 5.33 36 5.33 37.89C5.33 40.53 7.46 42.66 10.1 42.66L16 42.66L16 41.33C16 39.56 16.7 37.86 17.95 36.61C19.2 35.36 20.89 34.66 22.66 34.66L30.66 34.66C31.41 34.66 32 35.25 32 36C32 36.74 31.41 37.33 30.66 37.33L22.66 37.33C20.45 37.33 18.66 39.11 18.66 41.33L18.66 42.66L37.89 42.66C40.53 42.66 42.66 40.53 42.66 37.89C42.66 36 41.46 34.18 39.68 33.46L29.33 29.33L29.33 23.33C34.16 28.88 40.61 32 48 32Z" fill="#C3A9E2" fill-opacity="1.000000" fill-rule="nonzero"/>
</svg>
